<svg xmlns="http://www.w3.org/2000/svg" xml:space="preserve" width="800" height="800" viewBox="0 0 344.058 344.058"><path d="M336.559 211.482h-108.65c-14.758 0-26.764 12.006-26.764 26.764 0 10.356 5.913 19.358 14.54 23.806l-11.248 7.089-47.06-29.657c-12.483-7.869-29.044-4.11-36.911 8.372-7.887 12.512-4.145 29.025 8.372 36.913l61.328 38.649a26.76 26.76 0 0 0 28.54 0l92.682-58.409h25.17a7.5 7.5 0 0 0 7.5-7.5v-38.528a7.5 7.5 0 0 0-7.499-7.499m-7.5 38.529h-19.836c-1.415 0-2.802.4-3.999 1.155l-94.516 59.565c-3.758 2.37-8.782 2.371-12.542-.001l-61.329-38.649c-5.501-3.466-7.148-10.722-3.681-16.225 3.461-5.491 10.741-7.136 16.225-3.68l51.058 32.177a7.5 7.5 0 0 0 7.998 0l30.69-19.342h9.975a7.5 7.5 0 0 0 7.5-7.5 7.5 7.5 0 0 0-7.5-7.5H227.91c-6.486 0-11.764-5.277-11.764-11.764s5.277-11.764 11.764-11.764h101.149zM192.784 130.777h-.083c-7.893 0-15.277 3.222-20.672 9.032-5.404-5.82-12.792-9.032-20.672-9.032h-.083c-24.554.07-37.231 29.482-20.506 47.395q.115.132.237.259l28.333 29.45c6.924 7.197 18.432 7.222 25.382 0l28.332-29.45q.121-.127.237-.259c16.658-17.843 4.19-47.325-20.505-47.395m9.437 37.269a8 8 0 0 0-.173.188l-28.137 29.247a2.61 2.61 0 0 1-3.763 0l-28.138-29.247a8 8 0 0 0-.173-.188c-7.93-8.294-2.134-22.237 9.479-22.27h.039c7.28 0 13.173 5.891 13.173 13.173 0 4.142 3.357 7.5 7.5 7.5s7.5-3.358 7.5-7.5c0-7.281 5.892-13.173 13.174-13.173h.038c11.592.033 17.433 13.954 9.481 22.27m-59.308-62.234c0-10.356-5.913-19.358-14.54-23.806l11.248-7.089 47.06 29.657c12.483 7.868 29.044 4.111 36.911-8.372 7.887-12.512 4.145-29.025-8.372-36.913L153.892 20.64a26.76 26.76 0 0 0-28.54 0L32.67 79.047H7.5a7.5 7.5 0 0 0-7.5 7.5v38.528a7.5 7.5 0 0 0 7.5 7.5h108.649c14.758.001 26.764-12.007 26.764-26.763m-26.764 11.764H15V94.047h19.836c1.415 0 2.802-.4 3.999-1.155l94.516-59.565c3.758-2.37 8.782-2.371 12.542.001l61.329 38.649c5.501 3.466 7.148 10.722 3.681 16.225-3.459 5.487-10.738 7.138-16.225 3.68L143.62 59.706a7.5 7.5 0 0 0-7.998 0l-30.69 19.342h-9.975a7.5 7.5 0 0 0-7.5 7.5 7.5 7.5 0 0 0 7.5 7.5h21.192c6.486 0 11.764 5.277 11.764 11.764 0 6.485-5.277 11.764-11.764 11.764"/></svg>